<svg xmlns="http://www.w3.org/2000/svg" width="72.191" height="80" viewBox="0 0 72.191 80"><g transform="translate(-604 -43)"><path d="M35.285,70.569A35.285,35.285,0,1,0,0,35.285,35.285,35.285,0,0,0,35.285,70.569Z" transform="translate(604.811 51.62)" fill="#c9caca"/><path d="M36.1,1.622A34.474,34.474,0,1,0,70.569,36.1,34.474,34.474,0,0,0,36.1,1.622ZM0,36.1a36.1,36.1,0,1,1,36.1,36.1A36.1,36.1,0,0,1,0,36.1Z" transform="translate(604 50.809)" fill="#231815"/><path d="M25.594,0a25.559,25.559,0,1,0,9.8,1.94A25.594,25.594,0,0,0,25.594,0Z" transform="translate(614.501 61.301)" fill="#040000"/><path d="M23.572,0A23.572,23.572,0,1,1,0,23.572H0A23.53,23.53,0,0,1,23.572,0Z" transform="translate(616.523 63.333)" fill="#f7f8f8"/><path d="M1.525,2.984,3.033,1.541a2.053,2.053,0,0,0-.646-.463A1.175,1.175,0,0,0,1.759.971a.866.866,0,0,0-.5.232,1,1,0,0,0-.317.619,2.391,2.391,0,0,0-.023.371q0,.183.016.486A.308.308,0,0,1,.83,2.91a.345.345,0,0,1-.269.1.44.44,0,0,1-.287-.155.982.982,0,0,1-.2-.378A1.571,1.571,0,0,1,0,1.916,1.853,1.853,0,0,1,.17,1.258,2.064,2.064,0,0,1,.645.6,1.927,1.927,0,0,1,2.3.016a3.03,3.03,0,0,1,1.756,1.01,3.906,3.906,0,0,1,.632.871,2.523,2.523,0,0,1,.29.9,1.807,1.807,0,0,1-.107.85,2,2,0,0,1-.5.741,1.788,1.788,0,0,1-1,.51,1.988,1.988,0,0,1-1.061-.139,2.583,2.583,0,0,1-.864-.6Q1.1,3.8,1.168,3.538a1.212,1.212,0,0,1,.357-.554Zm2.02-.908L2.155,3.412a1.807,1.807,0,0,0,.908.521A.811.811,0,0,0,3.779,3.7a.79.79,0,0,0,.232-.695,1.9,1.9,0,0,0-.466-.931Z" transform="translate(615.763 61.952)" fill="#040000"/><path d="M.562,3.322a1.32,1.32,0,0,1-.343-.41,1.751,1.751,0,0,1-.2-.609,1.8,1.8,0,0,1,.049-.734A2.182,2.182,0,0,1,.448.809,1.853,1.853,0,0,1,1.94,0,2.97,2.97,0,0,1,3.794.695a3.707,3.707,0,0,1,.98,1.059,2.11,2.11,0,0,1,.317,1.158,1.953,1.953,0,0,1-.424,1.121,1.925,1.925,0,0,1-1.253.755,1.763,1.763,0,0,1-.621,0,1.158,1.158,0,0,1-.463-.2A.579.579,0,0,1,2.1,4.239a.445.445,0,0,1,.079-.373.308.308,0,0,1,.2-.125,1.27,1.27,0,0,1,.334,0,1.886,1.886,0,0,0,.681,0,.806.806,0,0,0,.463-.322.873.873,0,0,0,.1-.88,2.275,2.275,0,0,0-.811-.975,2.887,2.887,0,0,0-.584-.347,1.691,1.691,0,0,0-.535-.134.978.978,0,0,0-.463.072.876.876,0,0,0-.354.283.857.857,0,0,0-.185.549,1.522,1.522,0,0,0,.2.656,1.283,1.283,0,0,1,.148.375.361.361,0,0,1-.067.3.385.385,0,0,1-.341.151.658.658,0,0,1-.4-.141Z" transform="translate(612.401 65.779)" fill="#040000"/><path d="M1.02.176,5.9,3.033a1.022,1.022,0,0,1,.44.422.449.449,0,0,1-.021.433.463.463,0,0,1-.368.232.987.987,0,0,1-.588-.171L.48,1.1A.975.975,0,0,1,.043.667.463.463,0,0,1,.068.232.449.449,0,0,1,.439,0,1,1,0,0,1,1.02.176Z" transform="translate(610.609 69.604)" fill="#040000"/><path d="M.981,2.532a3.243,3.243,0,0,1-.208-.906A1.763,1.763,0,0,1,.927.808,1.295,1.295,0,0,1,2.086,0a1.622,1.622,0,0,1,.741.139A1.5,1.5,0,0,1,3.552.76a1.341,1.341,0,0,1,.16.9q-.014.1-.083.514t-.107.695q-.037.3-.063.653a1.592,1.592,0,0,0,.762.146q.28-.042.463-.475A1.1,1.1,0,0,0,4.8,2.578a1.117,1.117,0,0,0-.232-.489q-.2-.246-.253-.336A.3.3,0,0,1,4.34,1.48a.41.41,0,0,1,.253-.232.507.507,0,0,1,.382.023,1.265,1.265,0,0,1,.533.449,1.473,1.473,0,0,1,.232.783,2.347,2.347,0,0,1-.232,1.047,2.49,2.49,0,0,1-.628.927,1.144,1.144,0,0,1-.815.264,3.368,3.368,0,0,1-1.135-.313l-.714-.313L1.571,3.85a3.153,3.153,0,0,0-.744-.215,2.88,2.88,0,0,1-.512-.114.524.524,0,0,1-.273-.287.463.463,0,0,1,0-.387.442.442,0,0,1,.3-.232A2.822,2.822,0,0,1,.981,2.532Zm1.758.695a4.615,4.615,0,0,1,.069-.714q.072-.463.09-.637a.811.811,0,0,0-.067-.387.612.612,0,0,0-.347-.322.734.734,0,0,0-.535-.032.612.612,0,0,0-.378.352,1.073,1.073,0,0,0-.076.6,1.026,1.026,0,0,0,.243.535,2.384,2.384,0,0,0,.836.521Z" transform="translate(608.22 71.951)" fill="#040000"/><path d="M4.235,2.165.626,1.081A.971.971,0,0,1,.1.764.463.463,0,0,1,.021.335a.449.449,0,0,1,.306-.3,1,1,0,0,1,.6.028L4.506,1.134a.966.966,0,0,1,.517.308.472.472,0,0,1-.22.737A.866.866,0,0,1,4.235,2.165Zm1.443-.118a.505.505,0,0,1,.269-.317.663.663,0,0,1,.5-.016A.653.653,0,0,1,6.834,2a.5.5,0,0,1,.063.412.505.505,0,0,1-.262.306.646.646,0,0,1-.5.016.667.667,0,0,1-.405-.285.489.489,0,0,1-.053-.4Z" transform="translate(607.484 76.789)" fill="#040000"/><path d="M1.752,1.311.684,1.079A.968.968,0,0,1,.13.815.465.465,0,0,1,.281.064.989.989,0,0,1,.89.034L4.453.729q.862.171.762.681a.408.408,0,0,1-.278.364,1.332,1.332,0,0,1-.621,0,2.266,2.266,0,0,1,.519.5.718.718,0,0,1,.1.568,1.184,1.184,0,0,1-.329.6.623.623,0,0,1-.6.2.579.579,0,0,1-.361-.208.387.387,0,0,1-.095-.315,1.14,1.14,0,0,1,.141-.262,1.112,1.112,0,0,0,.164-.373.517.517,0,0,0-.074-.405,1.01,1.01,0,0,0-.392-.31,3.734,3.734,0,0,0-.672-.248Q2.329,1.415,1.752,1.311Z" transform="translate(606.84 79.219)" fill="#040000"/><path d="M6.27,1.164l-5.1.058L1.2,3.576a.551.551,0,0,1-.162.433.607.607,0,0,1-.419.155A.591.591,0,0,1,.2,4.021.561.561,0,0,1,.036,3.59L0,.787A.663.663,0,0,1,.2.24,1.059,1.059,0,0,1,.865.066L6.261,0a1.084,1.084,0,0,1,.646.151.493.493,0,0,1,.22.415A.51.51,0,0,1,6.919,1a1.063,1.063,0,0,1-.649.169Z" transform="translate(606.174 85.442)" fill="#040000"/><path d="M1.569,3.971l.811-.436L1.935,1.249l-.927-.1A3.491,3.491,0,0,1,.26,1.017.4.4,0,0,1,.007.688.5.5,0,0,1,.126.271.663.663,0,0,1,.531.021,1.191,1.191,0,0,1,.83,0a2.955,2.955,0,0,1,.442.046L6.017.621l.491.058a2.609,2.609,0,0,1,.484.1.846.846,0,0,1,.338.2.778.778,0,0,1,.153.79.866.866,0,0,1-.232.313,2.217,2.217,0,0,1-.341.232q-.185.107-.5.273L2.25,4.921a2.676,2.676,0,0,1-.695.315.7.7,0,0,1-.463-.079A.5.5,0,0,1,.816,4.8.44.44,0,0,1,.83,4.571a.514.514,0,0,1,.127-.192,1.622,1.622,0,0,1,.283-.2Zm1.48-2.627.327,1.682,2.673-1.39Z" transform="translate(606.279 90.618)" fill="#040000"/><path d="M.741,4.716.076,3.095a.646.646,0,0,1-.014-.579,1.077,1.077,0,0,1,.549-.4l4.865-2a1.056,1.056,0,0,1,.681-.1.656.656,0,0,1,.392.419l.695,1.719a3.577,3.577,0,0,1,.213.681,1.358,1.358,0,0,1-.016.591,1.543,1.543,0,0,1-.211.475,1.775,1.775,0,0,1-.364.412,2.013,2.013,0,0,1-.505.3A1.642,1.642,0,0,1,4.612,4.4,1.676,1.676,0,0,1,3.453,6.093a2.249,2.249,0,0,1-1.073.174,1.605,1.605,0,0,1-.894-.352,2.027,2.027,0,0,1-.4-.486,5.041,5.041,0,0,1-.343-.711ZM3.585,3.468,3.122,2.349l-1.893.776.463,1.158Q2.14,5.372,3.1,4.978a.927.927,0,0,0,.612-.584,1.462,1.462,0,0,0-.125-.927ZM5.744,1.279,4.07,1.974l.4.985a1.775,1.775,0,0,0,.347.581.7.7,0,0,0,.491.19,1.012,1.012,0,0,0,.463-.079q.491-.2.535-.554a1.978,1.978,0,0,0-.2-.927Z" transform="translate(608.022 95.131)" fill="#040000"/><path d="M6.465,1.159a2.625,2.625,0,0,1,.491,1.515,2.713,2.713,0,0,1-.5,1.506,5.1,5.1,0,0,1-1.4,1.344A5.653,5.653,0,0,1,3.729,6.2a3.426,3.426,0,0,1-1.256.2,2.409,2.409,0,0,1-1.112-.315,2.891,2.891,0,0,1-1.339-2A2.444,2.444,0,0,1,.145,2.927a3.436,3.436,0,0,1,.663-1.1A5.657,5.657,0,0,1,1.922.86,5.458,5.458,0,0,1,3.256.188,3.389,3.389,0,0,1,4.514,0,2.419,2.419,0,0,1,5.6.323a2.65,2.65,0,0,1,.866.836ZM4.4,4.541a3.938,3.938,0,0,0,.992-.915,1.814,1.814,0,0,0,.382-.959,1.39,1.39,0,0,0-.246-.88,1.327,1.327,0,0,0-.493-.442,1.478,1.478,0,0,0-.672-.16,2.421,2.421,0,0,0-.836.158,4.263,4.263,0,0,0-.941.5,4.369,4.369,0,0,0-.827.695,2.4,2.4,0,0,0-.463.737,1.527,1.527,0,0,0-.1.695,1.318,1.318,0,0,0,.232.619,1.36,1.36,0,0,0,.695.526,1.823,1.823,0,0,0,1.029.021A3.887,3.887,0,0,0,4.4,4.544Z" transform="translate(611.375 100.593)" fill="#040000"/><path d="M3.027,3.47,1.461,2.08a2.053,2.053,0,0,0-.408.695A1.172,1.172,0,0,0,1,3.41a.866.866,0,0,0,.278.463,1.068,1.068,0,0,0,.3.19,1.054,1.054,0,0,0,.345.074,2.439,2.439,0,0,0,.371,0q.183-.019.484-.058a.308.308,0,0,1,.232.09.345.345,0,0,1,.127.257.442.442,0,0,1-.13.3.985.985,0,0,1-.359.232,1.566,1.566,0,0,1-.556.114,1.853,1.853,0,0,1-.67-.109,2.069,2.069,0,0,1-.695-.419A1.93,1.93,0,0,1,0,2.951,3.046,3.046,0,0,1,.859,1.114,3.9,3.9,0,0,1,1.674.4,2.516,2.516,0,0,1,2.543.037,1.807,1.807,0,0,1,3.4.069a2.006,2.006,0,0,1,.781.438,1.788,1.788,0,0,1,.593.952,1.992,1.992,0,0,1-.049,1.068,2.59,2.59,0,0,1-.521.927q-.327.368-.6.327a1.214,1.214,0,0,1-.581-.31ZM1.95,1.533,3.4,2.812a1.8,1.8,0,0,0,.44-.945.809.809,0,0,0-.287-.695A.788.788,0,0,0,2.842.991a1.9,1.9,0,0,0-.892.544Z" transform="translate(616.932 107.857)" fill="#040000"/><path d="M3.425,4.466a1.325,1.325,0,0,1-.378.378,1.754,1.754,0,0,1-.588.255,1.8,1.8,0,0,1-.737.014A2.175,2.175,0,0,1,.932,4.8,1.853,1.853,0,0,1,.006,3.379,2.972,2.972,0,0,1,.541,1.484,3.707,3.707,0,0,1,1.512.418,2.11,2.11,0,0,1,2.642,0,1.953,1.953,0,0,1,3.8.328,1.925,1.925,0,0,1,4.66,1.486a1.758,1.758,0,0,1,.046.619,1.158,1.158,0,0,1-.155.486.581.581,0,0,1-.331.259A.445.445,0,0,1,3.84,2.8.308.308,0,0,1,3.7,2.617a1.265,1.265,0,0,1-.023-.334A1.883,1.883,0,0,0,3.617,1.6a.8.8,0,0,0-.361-.442.873.873,0,0,0-.885-.023,2.273,2.273,0,0,0-.9.892,2.887,2.887,0,0,0-.3.612,1.691,1.691,0,0,0-.1.561.973.973,0,0,0,.114.463A.876.876,0,0,0,1.477,4a.857.857,0,0,0,.563.139,1.522,1.522,0,0,0,.637-.255,1.288,1.288,0,0,1,.361-.178.361.361,0,0,1,.3.042.385.385,0,0,1,.178.327.656.656,0,0,1-.093.389Z" transform="translate(621.056 110.813)" fill="#040000"/><path d="M.127,5.64,2.55.527A1.019,1.019,0,0,1,2.933.064.449.449,0,0,1,3.366.048.463.463,0,0,1,3.635.4a.989.989,0,0,1-.12.6L1.089,6.1A.98.98,0,0,1,.7,6.56a.463.463,0,0,1-.436.012A.449.449,0,0,1,0,6.222,1,1,0,0,1,.127,5.64Z" transform="translate(625.151 110.915)" fill="#040000"/><path d="M2.63,4.757a3.243,3.243,0,0,1-.885.285,1.765,1.765,0,0,1-.827-.083,1.295,1.295,0,0,1-.9-1.08,1.636,1.636,0,0,1,.074-.751,1.494,1.494,0,0,1,.554-.776,1.341,1.341,0,0,1,.883-.232l.519.039q.415.032.714.046t.656,0a1.589,1.589,0,0,0,.079-.771q-.065-.276-.514-.426A1.1,1.1,0,0,0,2.355.946a1.117,1.117,0,0,0-.463.283q-.232.215-.313.28a.3.3,0,0,1-.276,0,.408.408,0,0,1-.25-.232.507.507,0,0,1,0-.385,1.26,1.26,0,0,1,.4-.57,1.469,1.469,0,0,1,.76-.31A2.347,2.347,0,0,1,3.279.147a2.488,2.488,0,0,1,.985.544,1.144,1.144,0,0,1,.336.79A3.373,3.373,0,0,1,4.386,2.64q-.146.436-.25.737L3.9,4.051a3.151,3.151,0,0,0-.148.758,2.9,2.9,0,0,1-.069.519.524.524,0,0,1-.262.3.463.463,0,0,1-.385.044.44.44,0,0,1-.248-.283,2.805,2.805,0,0,1-.162-.628Zm.535-1.812a4.608,4.608,0,0,1-.718,0q-.463-.03-.642-.035a.806.806,0,0,0-.38.1.612.612,0,0,0-.29.373.734.734,0,0,0,.014.537.612.612,0,0,0,.389.35,1.073,1.073,0,0,0,.609.025,1.031,1.031,0,0,0,.512-.29,2.384,2.384,0,0,0,.447-.878Z" transform="translate(627.548 113.809)" fill="#040000"/><path d="M1.852,2.676l-.771,3.69a.971.971,0,0,1-.271.549.463.463,0,0,1-.419.118.449.449,0,0,1-.331-.278,1,1,0,0,1-.023-.6L.8,2.5a.966.966,0,0,1,.262-.54.471.471,0,0,1,.751.158.866.866,0,0,1,.042.561ZM1.621,1.249a.505.505,0,0,1-.338-.232.663.663,0,0,1-.058-.5A.656.656,0,0,1,1.477.107a.493.493,0,0,1,.405-.1.5.5,0,0,1,.327.232.646.646,0,0,1,.06.5.667.667,0,0,1-.25.429.486.486,0,0,1-.408.083Z" transform="translate(632.553 112.996)" fill="#040000"/><path d="M1.2,3.453l-.12,1.082a.966.966,0,0,1-.218.575.463.463,0,0,1-.405.155A.463.463,0,0,1,.1,5.033a.989.989,0,0,1-.081-.6L.419.819q.1-.873.614-.815a.408.408,0,0,1,.359.248,1.332,1.332,0,0,1,.06.616A2.254,2.254,0,0,1,1.916.307.718.718,0,0,1,2.472.163,1.186,1.186,0,0,1,3.1.439a.623.623,0,0,1,.255.577.579.579,0,0,1-.178.378.387.387,0,0,1-.308.123A1.158,1.158,0,0,1,2.594,1.4a1.1,1.1,0,0,0-.385-.132.514.514,0,0,0-.4.107,1.01,1.01,0,0,0-.278.419,3.707,3.707,0,0,0-.19.695A8.556,8.556,0,0,0,1.2,3.453Z" transform="translate(635.02 115.201)" fill="#040000"/><path d="M1.164.807l.493,5.073L4,5.649a.551.551,0,0,1,.447.125.6.6,0,0,1,.19.4.588.588,0,0,1-.107.431.563.563,0,0,1-.417.2l-2.78.271A.66.66,0,0,1,.771,6.93a1.056,1.056,0,0,1-.232-.644L.015.916A1.084,1.084,0,0,1,.11.258.493.493,0,0,1,.5,0,.51.51,0,0,1,.947.175a1.061,1.061,0,0,1,.218.632Z" transform="translate(640.798 113.496)" fill="#040000"/><path d="M3.892,5.731l-.505-.769L1.147,5.6l-.016.938a3.475,3.475,0,0,1-.069.758.4.4,0,0,1-.306.278A.5.5,0,0,1,.329,7.49a.665.665,0,0,1-.285-.382A1.2,1.2,0,0,1,0,6.811q0-.158,0-.445L.16,1.589q0-.206.016-.493A2.662,2.662,0,0,1,.232.6.848.848,0,0,1,.4.25.7.7,0,0,1,.758.032a.7.7,0,0,1,.419,0,.864.864,0,0,1,.331.206,2.2,2.2,0,0,1,.266.32q.123.176.317.463L4.775,4.96a2.673,2.673,0,0,1,.375.672.7.7,0,0,1-.037.475.5.5,0,0,1-.329.306.44.44,0,0,1-.232,0,.514.514,0,0,1-.2-.111,1.605,1.605,0,0,1-.232-.264ZM1.147,4.494l1.647-.463L1.172,1.483Z" transform="translate(646.424 112.462)" fill="#040000"/><path d="M5.151,6.6l-1.557.8a.646.646,0,0,1-.577.063,1.08,1.08,0,0,1-.447-.514L.163,2.267A1.056,1.056,0,0,1,.005,1.6.656.656,0,0,1,.39,1.171L2.042.323A3.575,3.575,0,0,1,2.7.052,1.353,1.353,0,0,1,3.293.017a1.536,1.536,0,0,1,.491.169,1.772,1.772,0,0,1,.442.338A2.022,2.022,0,0,1,4.564,1,1.642,1.642,0,0,1,4.5,2.765,1.675,1.675,0,0,1,6.288,3.77a2.247,2.247,0,0,1,.264,1.054,1.608,1.608,0,0,1-.273.927,2.032,2.032,0,0,1-.449.442A5.025,5.025,0,0,1,5.151,6.6ZM1.284,1.91l.827,1.622.945-.486a1.77,1.77,0,0,0,.551-.4.7.7,0,0,0,.146-.505A1.012,1.012,0,0,0,3.635,1.7a.742.742,0,0,0-.6-.486,1.978,1.978,0,0,0-.927.276ZM3.652,3.875l-1.075.551L3.5,6.245l1.11-.57q1.047-.537.572-1.459a.927.927,0,0,0-.623-.544,1.459,1.459,0,0,0-.91.2Z" transform="translate(650.322 110.232)" fill="#040000"/><path d="M.993.621A2.625,2.625,0,0,1,2.462.005,2.713,2.713,0,0,1,4,.376,5.1,5.1,0,0,1,5.462,1.659a5.639,5.639,0,0,1,.788,1.263,3.426,3.426,0,0,1,.3,1.235,2.412,2.412,0,0,1-.22,1.135A2.9,2.9,0,0,1,4.456,6.8,2.442,2.442,0,0,1,3.3,6.77,3.433,3.433,0,0,1,2.14,6.2,5.655,5.655,0,0,1,1.076,5.176,5.465,5.465,0,0,1,.293,3.9,3.4,3.4,0,0,1,0,2.667,2.416,2.416,0,0,1,.233,1.553,2.653,2.653,0,0,1,.993.621ZM4.54,2.389a3.938,3.938,0,0,0-1-.91,1.816,1.816,0,0,0-.987-.3A1.39,1.39,0,0,0,1.7,1.5a1.33,1.33,0,0,0-.4.528,1.478,1.478,0,0,0-.1.681,2.423,2.423,0,0,0,.232.82,4.258,4.258,0,0,0,.575.908,4.374,4.374,0,0,0,.774.762,2.4,2.4,0,0,0,.774.405,1.529,1.529,0,0,0,.695.046,1.32,1.32,0,0,0,.6-.278,1.36,1.36,0,0,0,.463-.727,1.821,1.821,0,0,0-.065-1.029,3.885,3.885,0,0,0-.69-1.237Z" transform="translate(655.594 107.013)" fill="#040000"/><path d="M3.434,1.663,2.192,3.343a2.053,2.053,0,0,0,.718.347,1.175,1.175,0,0,0,.637,0A.869.869,0,0,0,4,3.373a1.059,1.059,0,0,0,.164-.315,1.042,1.042,0,0,0,.044-.35,2.442,2.442,0,0,0-.039-.368q-.032-.181-.1-.477a.31.31,0,0,1,.07-.232.345.345,0,0,1,.246-.148.44.44,0,0,1,.31.1.985.985,0,0,1,.264.336,1.573,1.573,0,0,1,.162.544,1.853,1.853,0,0,1-.051.676,2.059,2.059,0,0,1-.347.72,1.927,1.927,0,0,1-1.527.859,3.013,3.013,0,0,1-1.9-.695,3.9,3.9,0,0,1-.778-.751,2.518,2.518,0,0,1-.438-.834,1.8,1.8,0,0,1-.042-.857A2,2,0,0,1,.4.769,1.786,1.786,0,0,1,1.3.1,1.985,1.985,0,0,1,2.368.053a2.583,2.583,0,0,1,.971.44q.4.292.375.565a1.214,1.214,0,0,1-.28.6ZM1.6,2.9,2.755,1.344a1.8,1.8,0,0,0-.98-.357.811.811,0,0,0-.667.345.79.79,0,0,0-.118.727A1.9,1.9,0,0,0,1.6,2.9Z" transform="translate(662.525 103.031)" fill="#040000"/><path d="M4.394,1.057A1.32,1.32,0,0,1,4.8,1.4a1.758,1.758,0,0,1,.3.565,1.8,1.8,0,0,1,.079.732,2.18,2.18,0,0,1-.246.813A1.853,1.853,0,0,1,3.607,4.564a2.97,2.97,0,0,1-1.934-.371A3.707,3.707,0,0,1,.526,3.32,2.113,2.113,0,0,1,.014,2.231,1.953,1.953,0,0,1,.245,1.054,1.927,1.927,0,0,1,1.332.1,1.765,1.765,0,0,1,1.943,0a1.158,1.158,0,0,1,.5.114.577.577,0,0,1,.287.308A.445.445,0,0,1,2.715.8a.31.31,0,0,1-.176.158,1.27,1.27,0,0,1-.331.053,1.888,1.888,0,0,0-.672.114.806.806,0,0,0-.408.4.873.873,0,0,0,.053.885,2.273,2.273,0,0,0,.966.822,2.889,2.889,0,0,0,.635.232,1.689,1.689,0,0,0,.565.049A.978.978,0,0,0,3.8,3.362a.873.873,0,0,0,.3-.338.855.855,0,0,0,.09-.572,1.524,1.524,0,0,0-.308-.614,1.29,1.29,0,0,1-.211-.345.361.361,0,0,1,.016-.3.385.385,0,0,1,.31-.206.656.656,0,0,1,.4.074Z" transform="translate(665.115 98.791)" fill="#040000"/><path d="M5.894,3.06.591,1.089A1.019,1.019,0,0,1,.086.748.447.447,0,0,1,.033.317a.463.463,0,0,1,.322-.3A.987.987,0,0,1,.964.088l5.3,1.971a.978.978,0,0,1,.505.347.463.463,0,0,1,.051.433.449.449,0,0,1-.327.285,1,1,0,0,1-.6-.065Z" transform="translate(664.814 95.889)" fill="#040000"/><path d="M4.724,1.669a3.243,3.243,0,0,1,.359.857,1.765,1.765,0,0,1-.012.832,1.3,1.3,0,0,1-1,.994,1.636,1.636,0,0,1-.755,0A1.5,1.5,0,0,1,2.5,3.868a1.341,1.341,0,0,1-.313-.859V2.487q0-.415-.016-.714T2.116,1.12a1.592,1.592,0,0,0-.776-.014q-.269.09-.382.549a1.1,1.1,0,0,0,0,.628,1.117,1.117,0,0,0,.322.44q.232.208.306.287a.3.3,0,0,1,.025.273.412.412,0,0,1-.211.269.51.51,0,0,1-.382.042,1.263,1.263,0,0,1-.6-.352,1.473,1.473,0,0,1-.373-.73A2.347,2.347,0,0,1,.086,1.44,2.488,2.488,0,0,1,.549.411a1.144,1.144,0,0,1,.758-.4A3.373,3.373,0,0,1,2.456.117L3.214.3l.695.174A3.153,3.153,0,0,0,4.678.56,2.889,2.889,0,0,1,5.2.583a.524.524,0,0,1,.32.232.463.463,0,0,1,.079.38.442.442,0,0,1-.259.271A2.8,2.8,0,0,1,4.724,1.669ZM2.871,1.294a4.58,4.58,0,0,1,.056.716q0,.463.021.642a.811.811,0,0,0,.132.371.612.612,0,0,0,.4.257.734.734,0,0,0,.533-.06A.612.612,0,0,0,4.326,2.8a1.073,1.073,0,0,0-.016-.6,1.026,1.026,0,0,0-.331-.484,2.384,2.384,0,0,0-.913-.371Z" transform="translate(667.568 92.227)" fill="#040000"/><path d="M1.27.612a.505.505,0,0,1-.213.359.663.663,0,0,1-.489.1A.656.656,0,0,1,.135.855.5.5,0,0,1,0,.459.5.5,0,0,1,.209.114.646.646,0,0,1,.7.012a.67.67,0,0,1,.449.213A.489.489,0,0,1,1.27.612ZM2.66.25,6.4.714a.971.971,0,0,1,.57.232.463.463,0,0,1,.153.408.449.449,0,0,1-.25.354,1,1,0,0,1-.6.074L2.57,1.332a.968.968,0,0,1-.561-.215.463.463,0,0,1-.148-.4A.463.463,0,0,1,2.093.352a.866.866,0,0,1,.579-.1Z" transform="translate(666.372 89.677)" fill="#040000"/><path d="M3.434,1.93l1.089.03a.966.966,0,0,1,.591.169.466.466,0,0,1-.023.764.989.989,0,0,1-.6.132L.865,2.94Q-.013,2.917,0,2.4a.408.408,0,0,1,.2-.385A1.33,1.33,0,0,1,.814,1.9a2.259,2.259,0,0,1-.6-.41A.718.718,0,0,1,.029.948,1.184,1.184,0,0,1,.261.3.625.625,0,0,1,.814,0a.579.579,0,0,1,.392.146A.387.387,0,0,1,1.354.44a1.158,1.158,0,0,1-.1.28,1.11,1.11,0,0,0-.1.394A.514.514,0,0,0,1.3,1.5a1.01,1.01,0,0,0,.44.232,3.746,3.746,0,0,0,.695.132Q2.848,1.914,3.434,1.93Z" transform="translate(668.429 85.929)" fill="#040000"/><path d="M.758,3.953l5.013-.927L5.342.71A.554.554,0,0,1,5.428.247.6.6,0,0,1,5.815.015a.591.591,0,0,1,.438.069.565.565,0,0,1,.232.4L7,3.24a.66.66,0,0,1-.1.575,1.059,1.059,0,0,1-.623.285l-5.31,1A1.086,1.086,0,0,1,.3,5.058a.493.493,0,0,1-.287-.371.51.51,0,0,1,.132-.463,1.063,1.063,0,0,1,.614-.271Z" transform="translate(666.283 78.564)" fill="#040000"/><path d="M5.464,1.293l-.723.57.832,2.178L6.5,3.976a3.489,3.489,0,0,1,.76,0,.4.4,0,0,1,.3.28.5.5,0,0,1-.044.431A.665.665,0,0,1,7.165,5a1.2,1.2,0,0,1-.292.069q-.158.019-.442.03l-4.772.253-.493.028A2.613,2.613,0,0,1,.671,5.37.846.846,0,0,1,.3,5.231.7.7,0,0,1,.055,4.9a.7.7,0,0,1-.039-.417.862.862,0,0,1,.176-.347,2.229,2.229,0,0,1,.294-.292Q.65,3.7.931,3.485L4.619.473A2.673,2.673,0,0,1,5.258.042a.7.7,0,0,1,.477,0,.5.5,0,0,1,.334.3A.44.44,0,0,1,6.1.575.51.51,0,0,1,6,.786a1.6,1.6,0,0,1-.243.246Zm-1,2.84-.612-1.6L1.463,4.374Z" transform="translate(664.727 72.564)" fill="#040000"/><path d="M6.417,1.245l.927,1.483a.646.646,0,0,1,.111.57,1.077,1.077,0,0,1-.463.489l-4.473,2.8a1.059,1.059,0,0,1-.653.213A.656.656,0,0,1,1.4,6.451L.414,4.878a3.57,3.57,0,0,1-.327-.635A1.353,1.353,0,0,1,0,3.659a1.545,1.545,0,0,1,.127-.5,1.775,1.775,0,0,1,.3-.463A2.025,2.025,0,0,1,.88,2.315,1.642,1.642,0,0,1,2.64,2.227,1.666,1.666,0,0,1,3.491.363,2.249,2.249,0,0,1,4.517.008,1.608,1.608,0,0,1,5.46.2a2.022,2.022,0,0,1,.48.41,5,5,0,0,1,.477.632ZM2.068,5.5,3.6,4.535l-.565-.9a1.781,1.781,0,0,0-.44-.514.7.7,0,0,0-.517-.1,1.015,1.015,0,0,0-.433.155.74.74,0,0,0-.433.637,1.976,1.976,0,0,0,.352.892ZM3.822,2.971,4.464,4,6.2,2.909,5.534,1.852q-.625-1-1.5-.447a.927.927,0,0,0-.489.667,1.459,1.459,0,0,0,.28.9Z" transform="translate(661.986 67.597)" fill="#040000"/><path d="M.769,5.863A2.625,2.625,0,0,1,.03,4.452,2.713,2.713,0,0,1,.262,2.884,5.1,5.1,0,0,1,1.42,1.323,5.653,5.653,0,0,1,2.611.431a3.426,3.426,0,0,1,1.2-.408A2.412,2.412,0,0,1,4.974.146a2.891,2.891,0,0,1,1.659,1.74,2.442,2.442,0,0,1,.074,1.158,3.431,3.431,0,0,1-.463,1.191,5.66,5.66,0,0,1-.927,1.147,5.458,5.458,0,0,1-1.2.887,3.389,3.389,0,0,1-1.209.4,2.416,2.416,0,0,1-1.128-.132,2.646,2.646,0,0,1-1.01-.67ZM2.229,2.18a3.938,3.938,0,0,0-.822,1.07,1.816,1.816,0,0,0-.213,1.01,1.39,1.39,0,0,0,.392.825,1.327,1.327,0,0,0,.561.354,1.478,1.478,0,0,0,.695.044,2.416,2.416,0,0,0,.8-.3,4.267,4.267,0,0,0,.857-.651A4.374,4.374,0,0,0,5.19,3.7a2.4,2.4,0,0,0,.338-.8A1.527,1.527,0,0,0,5.514,2.2a1.32,1.32,0,0,0-.343-.577A1.36,1.36,0,0,0,4.4,1.209a1.823,1.823,0,0,0-1.019.153A3.88,3.88,0,0,0,2.22,2.18Z" transform="translate(658.367 62.64)" fill="#040000"/><path d="M0,1.518A1.49,1.49,0,0,1,1.518,0h.1a1.569,1.569,0,0,1,.1,3.137h0A1.559,1.559,0,0,1,.1,1.722C0,1.722,0,1.62,0,1.518Z" transform="translate(626.934 97.424)" fill="#040000"/><path d="M3.239,1.629A1.49,1.49,0,0,1,1.722,3.147h-.1A1.569,1.569,0,0,1,1.518.01h0A1.559,1.559,0,0,1,3.14,1.425C3.239,1.527,3.239,1.527,3.239,1.629Z" transform="translate(650.007 97.415)" fill="#040000"/><path d="M1.215,0H15.782A1.158,1.158,0,0,1,17,1.215h0a1.158,1.158,0,0,1-1.214,1.214H1.215A1.158,1.158,0,0,1,0,1.215H0A1.158,1.158,0,0,1,1.215,0Z" transform="translate(631.395 97.828)" fill="#040000"/><path d="M6.044,7.992,3.111,5.059,6.044,2.124A1.286,1.286,0,0,0,5.942.3,1.369,1.369,0,0,0,4.223.3L.38,4.147a1.281,1.281,0,0,0,0,1.821L3.313,8.9.387,11.838a.971.971,0,0,0-.3,1.012,1.71,1.71,0,0,0,.3,1.012L3.32,16.8.387,19.728a1.286,1.286,0,0,0,.1,1.821,1.369,1.369,0,0,0,1.719,0L6.044,17.7a1.281,1.281,0,0,0,0-1.821h0L3.009,12.848,6.044,9.813a1.281,1.281,0,0,0,0-1.821Z" transform="translate(636.875 73.348)" fill="#f1ab40"/><path d="M16.186,15.781,0,18.816V0H16.186Z" transform="translate(640.095 51.599)" fill="#040000"/><path d="M14.972,18.716,0,12.746V0L24.077,9.408Z" transform="translate(640.095 43)" fill="#040000"/><path d="M0,15.579l16.186,3.137V0H0Z" transform="translate(623.909 51.699)" fill="#2b2b2b"/><path d="M9.1,18.716l14.972-5.868V0L0,9.51Z" transform="translate(616.019 43)" fill="#2b2b2b"/></g></svg>